<svg xmlns="http://www.w3.org/2000/svg" width="64.757" height="64.757" viewBox="0 0 64.757 64.757">
  <g id="Group_11160" data-name="Group 11160" transform="translate(-2 -2)">
    <path id="Path_10329" data-name="Path 10329" d="M41.868,17.777H9.261a3.391,3.391,0,0,1,0-6.777H41.868a3.391,3.391,0,0,1,0,6.777Z" transform="translate(8.717 19.959)" fill="#fff"/>
    <path id="Path_10330" data-name="Path 10330" d="M34.379,2A32.381,32.381,0,0,0,9.307,54.871L2.949,61.23a3.238,3.238,0,0,0,2.289,5.527H34.379A32.378,32.378,0,0,0,34.379,2ZM24.665,18.189H44.092a3.238,3.238,0,0,1,0,6.476H24.665a3.238,3.238,0,1,1,0-6.476ZM44.092,50.568H24.665a3.238,3.238,0,1,1,0-6.476H44.092a3.238,3.238,0,0,1,0,6.476Zm6.476-12.951H18.189a3.238,3.238,0,0,1,0-6.476H50.568a3.238,3.238,0,0,1,0,6.476Z" transform="translate(0)" fill="#d7141d"/>
    <path id="Path_10331" data-name="Path 10331" d="M30.825,39.448H11.261a3.245,3.245,0,1,1,0-6.49H30.825a3.245,3.245,0,1,1,0,6.49Zm0-25.959H11.261a3.245,3.245,0,1,1,0-6.49H30.825a3.245,3.245,0,1,1,0,6.49Z" transform="translate(13.336 11.172)" fill="#fff"/>
  </g>
</svg>
