<svg xmlns="http://www.w3.org/2000/svg" width="35.125" height="31.222" viewBox="0 0 35.125 31.222">
  <path id="Icon_awesome-map-marked-alt" data-name="Icon awesome-map-marked-alt" d="M17.563,0A7.683,7.683,0,0,0,9.879,7.684c0,3.431,5.022,9.684,6.946,11.953a.962.962,0,0,0,1.476,0c1.924-2.27,6.946-8.523,6.946-11.953A7.683,7.683,0,0,0,17.563,0Zm0,10.245a2.561,2.561,0,1,1,2.561-2.561A2.561,2.561,0,0,1,17.563,10.245ZM1.227,13.169A1.952,1.952,0,0,0,0,14.981V30.245a.976.976,0,0,0,1.338.906l8.419-3.832V13.106a18.467,18.467,0,0,1-1.3-2.831Zm16.336,8.764A2.914,2.914,0,0,1,15.336,20.9c-1.2-1.415-2.474-3.026-3.628-4.678v11.1l11.708,3.9v-15c-1.154,1.652-2.428,3.264-3.628,4.678A2.915,2.915,0,0,1,17.563,21.933ZM33.787,9.828,25.368,13.66V31.222L33.9,27.81A1.951,1.951,0,0,0,35.125,26V10.734A.976.976,0,0,0,33.787,9.828Z" fill="#fff"/>
</svg>
